<svg width="1142" height="200" viewBox="0 0 1142 200" fill="none" xmlns="http://www.w3.org/2000/svg">
<path fill-rule="evenodd" clip-rule="evenodd" d="M81.4004 0L0 38.8L0 161.2L81.4004 200L162.801 161.2V38.8L81.4004 0ZM81.3922 25.3013L25.9917 51.1013L25.9917 147.101L53.5917 134.101L53.5917 63.1013L81.3917 51.0013L109.192 63.1013L109.192 134.101L136.793 147.101V51.1013L81.3922 25.3013Z" fill="white"/>
<path d="M1104.79 163.292C1089.08 163.292 1076.92 159.428 1068.31 151.702C1059.69 143.975 1055.39 132.132 1055.39 116.172C1055.39 101.732 1059.06 90.3316 1066.41 81.9716C1073.75 73.6116 1084.9 69.4316 1099.85 69.4316C1113.53 69.4316 1123.79 73.0416 1130.63 80.2616C1137.59 87.355 1141.08 96.5383 1141.08 107.812V124.532H1075.15C1076.16 133.272 1079.33 139.288 1084.65 142.582C1089.97 145.875 1098.07 147.522 1108.97 147.522C1113.53 147.522 1118.21 147.078 1123.03 146.192C1127.84 145.305 1132.02 144.165 1135.57 142.772V157.972C1131.51 159.745 1126.83 161.075 1121.51 161.962C1116.31 162.848 1110.74 163.292 1104.79 163.292ZM1075.15 111.042H1122.84V104.772C1122.84 98.565 1121.13 93.7516 1117.71 90.3316C1114.29 86.785 1108.52 85.0116 1100.42 85.0116C1090.79 85.0116 1084.14 87.1017 1080.47 91.2816C1076.92 95.4616 1075.15 102.048 1075.15 111.042Z" fill="white"/>
<path d="M1025.29 163.297C1015.66 163.297 1008.44 160.764 1003.63 155.697C998.944 150.504 996.601 143.474 996.601 134.607V87.4874H983.301V71.3374H996.601V50.6274L1017.12 44.3574V71.3374H1041.06L1039.73 87.4874H1017.12V133.467C1017.12 138.661 1018.32 142.334 1020.73 144.487C1023.14 146.514 1027.06 147.527 1032.51 147.527C1035.93 147.527 1039.54 146.894 1043.34 145.627V160.257C1038.4 162.284 1032.38 163.297 1025.29 163.297Z" fill="white"/>
<path d="M915.115 163.292C909.415 163.292 904.095 162.278 899.155 160.252C894.342 158.225 890.479 155.185 887.565 151.132C884.652 146.952 883.195 141.822 883.195 135.742C883.195 127.128 886.109 120.225 891.935 115.032C897.889 109.712 907.009 107.052 919.295 107.052H948.175V103.062C948.175 98.755 947.479 95.335 946.085 92.8016C944.819 90.2683 942.412 88.4316 938.865 87.2916C935.445 86.1516 930.379 85.5816 923.665 85.5816C913.025 85.5816 903.082 87.165 893.835 90.3316V74.9416C897.889 73.295 902.829 71.965 908.655 70.9516C914.482 69.9383 920.752 69.4316 927.465 69.4316C940.639 69.4316 950.645 72.0916 957.485 77.4116C964.452 82.7316 967.935 91.4083 967.935 103.442V161.392H950.265L948.935 152.272C945.262 155.818 940.702 158.542 935.255 160.442C929.935 162.342 923.222 163.292 915.115 163.292ZM920.625 148.472C926.832 148.472 932.215 147.458 936.775 145.432C941.462 143.278 945.262 140.428 948.175 136.882V121.112H919.675C913.595 121.112 909.162 122.315 906.375 124.722C903.715 127.002 902.385 130.548 902.385 135.362C902.385 140.048 903.969 143.405 907.135 145.432C910.302 147.458 914.799 148.472 920.625 148.472Z" fill="white"/>
<path d="M840.415 55.9242V38.8242H863.025V55.9242H840.415ZM842.125 161.394V87.1042H828.445L830.345 71.3342H862.835V161.394H842.125Z" fill="white"/>
<path d="M787.109 163.292C771.276 163.292 759.306 159.302 751.199 151.322C743.092 143.215 739.039 131.562 739.039 116.362C739.039 100.528 743.472 88.7483 752.339 81.0216C761.332 73.295 773.302 69.4316 788.249 69.4316C794.456 69.4316 799.649 69.875 803.829 70.7616C808.136 71.6483 812.252 73.0416 816.179 74.9416V90.3316C809.592 87.0383 801.612 85.3916 792.239 85.3916C781.852 85.3916 773.872 87.735 768.299 92.4216C762.726 96.9816 759.939 104.962 759.939 116.362C759.939 127.128 762.409 135.045 767.349 140.112C772.289 145.052 780.459 147.522 791.859 147.522C800.852 147.522 809.022 145.812 816.369 142.392V158.162C812.189 159.808 807.692 161.075 802.879 161.962C798.192 162.848 792.936 163.292 787.109 163.292Z" fill="white"/>
<path d="M686.384 163.292C670.678 163.292 658.518 159.428 649.904 151.702C641.291 143.975 636.984 132.132 636.984 116.172C636.984 101.732 640.658 90.3316 648.004 81.9716C655.351 73.6116 666.498 69.4316 681.444 69.4316C695.124 69.4316 705.384 73.0416 712.224 80.2616C719.191 87.355 722.674 96.5383 722.674 107.812V124.532H656.744C657.758 133.272 660.924 139.288 666.244 142.582C671.564 145.875 679.671 147.522 690.564 147.522C695.124 147.522 699.811 147.078 704.624 146.192C709.438 145.305 713.618 144.165 717.164 142.772V157.972C713.111 159.745 708.424 161.075 703.104 161.962C697.911 162.848 692.338 163.292 686.384 163.292ZM656.744 111.042H704.434V104.772C704.434 98.565 702.724 93.7516 699.304 90.3316C695.884 86.785 690.121 85.0116 682.014 85.0116C672.388 85.0116 665.738 87.1017 662.064 91.2816C658.518 95.4616 656.744 102.048 656.744 111.042Z" fill="white"/>
<path d="M576.203 161.392V74.1316L595.203 71.3316L596.343 81.7816C600.65 78.995 605.78 76.4616 611.733 74.1816C617.686 71.9016 623.576 70.3183 629.403 69.4316V85.2016C625.856 85.835 621.993 86.785 617.813 88.0516C613.76 89.1916 609.896 90.5217 606.223 92.0417C602.55 93.435 599.446 94.8916 596.913 96.4116V161.392H576.203Z" fill="white"/>
<path d="M465.617 199.992V74.1316L483.477 71.3316L484.617 80.2616C488.671 76.5883 493.104 73.865 497.917 72.0917C502.731 70.3183 508.431 69.4316 515.017 69.4316C527.937 69.4316 538.007 72.9783 545.227 80.0716C552.447 87.0383 556.057 98.6283 556.057 114.842C556.057 131.055 552.321 143.215 544.847 151.322C537.374 159.302 527.177 163.292 514.257 163.292C503.364 163.292 494.054 160.758 486.327 155.692V199.992H465.617ZM508.937 147.712C526.417 147.712 535.157 136.692 535.157 114.652C535.157 104.012 533.194 96.475 529.267 92.0417C525.341 87.4817 518.754 85.2017 509.507 85.2017C500.261 85.2017 492.534 88.3683 486.327 94.7017V139.732C489.241 142.138 492.471 144.102 496.017 145.622C499.691 147.015 503.997 147.712 508.937 147.712Z" fill="white"/>
<path d="M355.027 199.992L355.027 74.1316L372.887 71.3316L374.027 80.2616C378.081 76.5883 382.514 73.865 387.327 72.0917C392.141 70.3183 397.841 69.4316 404.427 69.4316C417.347 69.4316 427.417 72.9783 434.637 80.0716C441.857 87.0383 445.467 98.6283 445.467 114.842C445.467 131.055 441.731 143.215 434.257 151.322C426.784 159.302 416.587 163.292 403.667 163.292C392.774 163.292 383.464 160.758 375.737 155.692V199.992H355.027ZM398.347 147.712C415.827 147.712 424.567 136.692 424.567 114.652C424.567 104.012 422.604 96.475 418.677 92.0417C414.751 87.4817 408.164 85.2017 398.917 85.2017C389.671 85.2017 381.944 88.3683 375.737 94.7017V139.732C378.651 142.138 381.881 144.102 385.427 145.622C389.101 147.015 393.407 147.712 398.347 147.712Z" fill="white"/>
<path d="M218.383 161.194L265.123 38.834L288.303 38.834L334.663 161.194H313.383L301.223 129.654H252.013L239.853 161.194H218.383ZM255.243 113.694H297.803L276.523 57.644L255.243 113.694Z" fill="white"/>
</svg>
